<?xml version="1.0" encoding="iso-8859-1"?>
<!-- Generator: Adobe Illustrator 19.0.0, SVG Export Plug-In . SVG Version: 6.00 Build 0)  -->
<svg version="1.1" id="Layer_1" xmlns="http://www.w3.org/2000/svg" xmlns:xlink="http://www.w3.org/1999/xlink" x="0px" y="0px"
	 viewBox="0 0 460.334 460.334" style="enable-background:new 0 0 460.334 460.334;" xml:space="preserve">
<g>
	<path style="fill:#71E2F0;" d="M230.167,0c-127.026,0-230,102.975-230,230c0,115.438,85.045,211.014,195.9,227.489l264.01-234.015
		C456.621,99.467,355.01,0,230.167,0z"/>
	<path style="fill:#38C6D9;" d="M460.167,230.333c0-2.294-0.043-4.577-0.11-6.855L305.371,68.793L154.664,219.5l66.989,66.99
		L99.358,361.143l96.664,96.664c11.142,1.658,22.542,2.527,34.145,2.527C357.192,460.333,460.167,357.359,460.167,230.333z"/>
	<path style="fill:#366796;" d="M230.018,37.582c58.857,0,106.565,47.708,106.565,106.565s-47.708,106.565-106.565,106.565
		l-37.391-106.565L230.018,37.582z"/>
	<path style="fill:#5488A8;" d="M230.018,37.582v213.13c-58.857,0-106.565-47.708-106.565-106.565S171.161,37.582,230.018,37.582z"
		/>
	<path style="fill:#121149;" d="M323.867,270.712c25.55,12.621,48.169,30.303,66.584,51.721C358.473,377.765,298.67,415,230.167,415
		l-20-92.144l95.785-52.145L323.867,270.712z"/>
	<path style="fill:#366796;" d="M136.467,270.712c-25.55,12.621-48.169,30.303-66.584,51.721
		C101.86,377.765,161.664,415,230.167,415V308.212l-75.785-37.501L136.467,270.712z"/>
	<polygon style="fill:#366796;" points="277.667,270.712 220.167,308.212 230.167,346.496 305.951,270.711 	"/>
	<polygon style="fill:#5488A8;" points="182.667,270.712 230.167,308.212 230.167,346.496 154.382,270.711 	"/>
	<polygon style="fill:#C2FBFF;" points="230.167,270.712 220.167,291.003 230.167,318.212 277.667,270.712 	"/>
	<polygon style="fill:#FFFFFF;" points="182.667,270.712 230.167,318.212 230.167,270.712 	"/>
</g>
<g>
</g>
<g>
</g>
<g>
</g>
<g>
</g>
<g>
</g>
<g>
</g>
<g>
</g>
<g>
</g>
<g>
</g>
<g>
</g>
<g>
</g>
<g>
</g>
<g>
</g>
<g>
</g>
<g>
</g>
</svg>
